<svg width="0" height="0" class="hidden">
  <symbol enable-background="new 0 0 50 50" id="DEX" version="1.1" xml:space="preserve" xmlns="http://www.w3.org/2000/svg" xmlns:xlink="http://www.w3.org/1999/xlink" viewBox="0 0 50 50">
    <g id="D">
      <path d="M25,11.3c-7.6,0-13.7,6.1-13.7,13.7c0,2.6,0.7,5,2,7l-2,3.9l4.6-0.8c2.4,2.2,5.6,3.5,9.1,3.5   c7.6,0,13.7-6.1,13.7-13.7C38.7,17.4,32.6,11.3,25,11.3z M25.9,31.4h-5.5V18.6h5.5c4.7,0,6.4,2.5,6.4,6.4   C32.3,28.8,30.6,31.4,25.9,31.4z" fill="#2E9FFF"></path>
      <path d="M25.9,21.4h-2.7v7.3h2.7c2.2,0,3.6-1.5,3.6-3.6C29.6,22.9,28.1,21.4,25.9,21.4z" fill="#2E9FFF"></path>
    </g>
    <path d="M25,1C11.7,1,1,11.7,1,25s10.7,24,24,24s24-10.7,24-24S38.3,1,25,1z M25,44C14.5,44,6,35.5,6,25S14.5,6,25,6  s19,8.5,19,19S35.5,44,25,44z" fill="#2E9FFF"></path>
  </symbol>
  <symbol id="mDAI" xmlns="http://www.w3.org/2000/svg" viewBox="0 0 128 128">
    <title></title>
    <path d="M114.06,49.41h-9.5A43.29,43.29,0,0,0,63.87,20.77H29.41V49.41H17.94v9.21H29.41V69.38H17.94v9.21H29.41v28.64H63.87a43.29,43.29,0,0,0,40.69-28.64h9.5V69.38h-7.3a42.74,42.74,0,0,0,0-10.76h7.3ZM38.63,30H63.87A34.07,34.07,0,0,1,94.6,49.41h-56ZM63.87,98H38.63V78.59h56A34.07,34.07,0,0,1,63.87,98Zm34-34a34.16,34.16,0,0,1-.43,5.38H38.63V58.62H97.46A34.16,34.16,0,0,1,97.89,64Z"></path>
  </symbol>
  <symbol role="img" xmlns="http://www.w3.org/2000/svg" viewBox="0 0 24 24" id="mETH">
    <title></title>
    <path d="M11.944 17.97L4.58 13.62 11.943 24l7.37-10.38-7.372 4.35h.003zM12.056 0L4.69 12.223l7.365 4.354 7.365-4.35L12.056 0z"></path>
  </symbol>
</svg>