<svg width="0" height="0" class="hidden">
  <symbol id="down-chevron" xmlns="http://www.w3.org/2000/svg" viewBox="0 0 24 24">
    <path d="m12 18a1.021 1.021 0 0 1 -.707-.293l-10-10a1 1 0 0 1 1.414-1.414l9.293 9.293 9.293-9.293a1 1 0 1 1 1.414 1.414l-10 10a1.021 1.021 0 0 1 -.707.293z"></path>
  </symbol>
  <symbol id="ethereum" xmlns="http://www.w3.org/2000/svg" viewBox="0 0 24 24">
    <path id="ethereum" d="m12 14.22-4.04-1.35 4.04-2.02 4.04 2.02zm0 1.54a.672.672 0 0 1 -.24-.04l-4.181-1.394a.3.3 0 0 0 -.341.457l4.092 5.867a.813.813 0 0 0 1.34 0l4.092-5.867a.3.3 0 0 0 -.341-.457l-4.181 1.394a.672.672 0 0 1 -.24.04zm.34-6.42 4.16 2.079a.3.3 0 0 0 .4-.413l-4.18-7.586a.827.827 0 0 0 -1.44 0l-4.18 7.586a.3.3 0 0 0 .4.413l4.16-2.079a.808.808 0 0 1 .68 0z" fill="rgb(0,0,0)"></path>
  </symbol>
  <symbol xmlns="http://www.w3.org/2000/svg" viewBox="0 0 384 512" id="letter-D">
    <path d="M160 32.01L32 32.01c-17.67 0-32 14.33-32 32v384c0 17.67 14.33 32 32 32l128-.0073c123.5 0 224-100.5 224-224S283.5 32.01 160 32.01zM160 416H64v-320h96c88.22 0 160 71.78 160 159.1S248.2 416 160 416z"></path>
  </symbol>
  <symbol id="sort" xmlns="http://www.w3.org/2000/svg" viewBox="0 0 32 32">
    <path d="m7 13h18a1 1 0 0 0 .707-1.707l-9-9a.9994.9994 0 0 0 -1.414 0l-9 9a1 1 0 0 0 .707 1.707z"></path>
    <path d="m25 19h-18a1 1 0 0 0 -.707 1.707l9 9a.9995.9995 0 0 0 1.414 0l9-9a1 1 0 0 0 -.707-1.707z"></path>
  </symbol>
  <symbol xmlns="http://www.w3.org/2000/svg" viewBox="0 0 24 24" id="decrease">
    <g id="Layer_69">
      <path d="m22 15v4a1 1 0 0 1 -1 1h-4a1 1 0 0 1 0-2h1.67l-5.67-6.53-2.25 2.27a.9.9 0 0 1 -.75.26 1 1 0 0 1 -.72-.34l-7-8a1 1 0 0 1 1.5-1.32l6.3 7.22 2.21-2.26a1 1 0 0 1 1.46 0l6.25 7.18v-1.48a1 1 0 0 1 2 0z"></path>
    </g>
  </symbol>
</svg>